# AST/ASF file generated using VICON BodyLanguage
# -----------------------------------------------
:version 1.10
:name VICON
:units
  mass 1.0
  length 0.45
  angle deg
:documentation
   .ast/.asf automatically generated from VICON data using
   VICON BodyBuilder and BodyLanguage model FoxedUp or BRILLIANT.MOD
:root
   order TX TY TZ RX RY RZ
   axis XYZ
   position 0 0 0  
   orientation 0 0 0 
:bonedata
  begin
     id 1 
     name lhipjoint
     direction 0.560651 -0.75055 0.34978 
     length 2.44936 
     axis 0 0 0  XYZ
  end
  begin
     id 2 
     name lfemur
     direction 0.34202 -0.939693 0  
     length 7.42139  
     axis 0 0 20  XYZ
    dof rx ry rz
    limits (-160.0 20.0)
           (-70.0 70.0)
           (-60.0 70.0)
  end
  begin
     id 3 
     name ltibia
     direction 0.34202 -0.939693 0   
     length 7.75674   
     axis 0 0 20   XYZ
    dof rx
    limits (-10.0 170.0)
  end
  begin
     id 4 
     name lfoot
     direction 0.0925879 -0.254383 0.962661   
     length 2.38688   
     axis -90 7.62852e-016 20   XYZ
    dof rx rz
    limits (-45.0 90.0)
           (-70.0 20.0)
  end
  begin
     id 5 
     name ltoes
     direction 1.53567e-011 -4.21973e-011 1   
     length 1.19228   
     axis -90 7.62852e-016 20   XYZ
    dof rx
    limits (-90.0 20.0)
  end
  begin
     id 6 
     name rhipjoint
     direction -0.540087 -0.762838 0.355506   
     length 2.4099  
     axis 0 0 0  XYZ 
  end
  begin
     id 7 
     name rfemur
     direction -0.34202 -0.939693 0   
     length 7.70794   
     axis 0 0 -20   XYZ
    dof rx ry rz
    limits (-160.0 20.0)
           (-70.0 70.0)
           (-70.0 60.0)
  end
  begin
     id 8 
     name rtibia
     direction -0.34202 -0.939693 0   
     length 7.66106   
     axis 0 0 -20   XYZ
    dof rx
    limits (-10.0 170.0)
 end
 begin
     id 9 
     name rfoot
     direction -0.0830975 -0.228308 0.970036   
     length 2.4989  
     axis -90 -7.62852e-016 -20   XYZ
    dof rx rz
    limits (-45.0 90.0)
           (-20.0 70.0)
  end
  begin
     id 10 
     name rtoes
     direction -1.53517e-011 -4.21842e-011 1   
     length 1.2498   
     axis -90 -7.62852e-016 -20   XYZ
    dof rx
    limits (-90.0 20.0)
  end
  begin
     id 11 
     name lowerback
     direction 0.0266356 0.99402 -0.105896   
     length 2.1545   
     axis 0 0 0   XYZ
    dof rx ry rz
    limits (-20.0 45.0)
           (-30.0 30.0)
           (-30.0 30.0)
  end
  begin
     id 12 
     name upperback
     direction 0.0130547 0.999192 0.0380027   
     length 2.1434   
     axis 0 0 0   XYZ
    dof rx ry rz
    limits (-20.0 45.0)
           (-30.0 30.0)
           (-30.0 30.0)
  end
  begin
     id 13 
     name thorax
     direction 0.000590299 0.996288 0.0860764   
     length 2.19049   
     axis 0 0 0   XYZ
    dof rx ry rz
    limits (-20.0 45.0)
           (-30.0 30.0)
           (-30.0 30.0)
  end
  begin
     id 14 
     name lowerneck
     direction -0.0432125 0.978219 0.203028   
     length 1.62441   
     axis 0 0 0   XYZ
    dof rx ry rz
    limits (-20.0 45.0)
           (-30.0 30.0)
           (-30.0 30.0)
  end
  begin
     id 15 
     name upperneck
     direction -0.0192309 0.991699 -0.127138   
     length 1.66666   
     axis 0 0 0   XYZ
    dof rx ry rz
    limits (-20.0 45.0)
           (-30.0 30.0)
           (-30.0 30.0)
  end
  begin
     id 16
     name head
     direction -0.00434499 0.997882 -0.0649107  
     length 1.67142  
     axis 0 0 0   XYZ
    dof rx ry rz
    limits (-20.0 45.0)
           (-30.0 30.0)
           (-30.0 30.0)
  end
  begin
     id 17 
     name lclavicle
     direction 0.970351 0.240904 -0.0196058  
     length 4.04862  
     axis 0 0 0   XYZ
    dof ry rz
    limits (-20.0 10.0)
           (0.0 20.0)
  end
  begin
     id 18 
     name lhumerus
     direction 1 -4.4896e-011 -1.40911e-018   
     length 5.58345   
     axis 180 -30 -90   XYZ
    dof rx ry rz
    limits (-60.0 90.0)
           (-90.0 90.0)
           (-90.0 90.0)
  end
  begin
     id 19
     name lradius
     direction 1 -4.48968e-011 5.88912e-028   
     length 3.71087   
     axis 180 -30 -90   XYZ
    dof rx
    limits (-10.0 170.0)
  end
  begin
     id 20
     name lwrist
     direction 1 -4.48955e-011 -8.83775e-028   
     length 1.85544   
     axis 5.52448e-016 90 90   XYZ
    dof ry
    limits (-180.0 0.0)
 end
  begin
     id 21 
     name lhand
     direction 1 -4.49035e-011 -1.76755e-027   
     length 0.562322   
     axis 1.12785e-015 90 90   XYZ
    dof rx rz
    limits (-90.0 90.0)
           (-45.0 45.0)
  end
  begin
     id 22 
     name lfingers
     direction 1 -4.48824e-011 -3.5351e-027   
     length 0.453359   
     axis 2.2557e-015 90 90   XYZ
    dof rx
    limits (0.0 90.0)
  end
  begin
     id 23
     name lthumb
     direction 0.707107 -6.34888e-011 0.707107   
     length 0.650935   
     axis -90 45 2.85299e-015   XYZ
    dof rx rz
    limits (-45.0 45.0)
           (-45.0 45.0)
  end
  begin
     id 24 
     name rclavicle
     direction -0.96165 0.268562 -0.0557131   
     length 4.05446  
     axis 0 0 0   XYZ 
    dof ry rz
    limits (-10.0 20.0)
           (-20.0 0.0)
  end
  begin
     id 25 
     name rhumerus
     direction -1 -4.48957e-011 -3.36329e-027  
     length 5.20357   
     axis 180 30 90   XYZ
    dof rx ry rz
    limits (-90.0 60.0)
           (-90.0 90.0)
           (-90.0 90.0)
  end
  begin
     id 26 
     name rradius
     direction -1 -4.48974e-011 4.51441e-027   
     length 3.64937   
     axis 180 30 90   XYZ
    dof rx
    limits (-10.0 170.0)
  end
  begin
     id 27 
     name rwrist
     direction -1 -4.4896e-011 -8.83775e-028   
     length 1.82468   
     axis 5.52448e-016 -90 -90   XYZ
    dof ry
    limits (-180.0 0.0)
  end
  begin
     id 28
     name rhand
     direction -1 -4.48996e-011 -1.76755e-027   
     length 0.617996   
     axis 1.12785e-015 -90 -90   XYZ
    dof rx rz
    limits (-90.0 90.0)
           (-45.0 45.0)
  end
  begin
     id 29
     name rfingers
     direction -1 -4.48957e-011 -3.5351e-027   
     length 0.498244   
     axis 2.2557e-015 -90 -90   XYZ
    dof rx
    limits (0.0 90.0)
  end
  begin
     id 30
     name rthumb
     direction -0.707107 -6.34931e-011 0.707107   
     length 0.715382   
     axis -90 -45 -2.85299e-015   XYZ
    dof rx rz
    limits (-45.0 45.0)
           (-45.0 45.0)
  end
:hierarchy
  begin
    root lhipjoint rhipjoint lowerback
    lhipjoint lfemur
    lfemur ltibia
    ltibia lfoot
    lfoot ltoes
    rhipjoint rfemur
    rfemur rtibia
    rtibia rfoot
    rfoot rtoes
    lowerback upperback
    upperback thorax
    thorax lowerneck lclavicle rclavicle
    lowerneck upperneck
    upperneck head
    lclavicle lhumerus
    lhumerus lradius
    lradius lwrist
    lwrist lhand lthumb
    lhand lfingers
    rclavicle rhumerus
    rhumerus rradius
    rradius rwrist
    rwrist rhand rthumb
    rhand rfingers
  end

#!OML:ASF H:\ManfredETheater\Project 1\Capture day 2\Session 1\Male1.ASF
:FULLY-SPECIFIED
:DEGREES
47
root 5.40792 16.3647 -2.64288 1.33596 -4.52441 0.89441
lowerback 24.3704 -0.553866 8.12332
upperback 3.90784 1.89869 5.23827
thorax -9.17804 0.714655 0.579789
lowerneck -20.1193 -1.60138 -3.79669
upperneck 19.043 0.167489 -5.25898
head 9.36319 -0.814232 -1.17683
rclavicle -2.70347e-014 -8.26944e-014
rhumerus -36.3859 1.62242 -75.4039
rradius 71.3841
rwrist 4.18643
rhand -34.7778 4.53009
rfingers 7.12502
rthumb -7.93033 -25.3012
lclavicle -2.70347e-014 -8.26944e-014
lhumerus -39.2265 -12.3751 91.9494
lradius 90.3626
lwrist 2.77405
lhand -21.7349 -9.75143
lfingers 7.12502
lthumb 4.66471 20.1772
rfemur -38.4992 1.88536 24.1905
rtibia 70.987
rfoot -19.3805 -8.90343
rtoes -12.2476
lfemur -47.2474 6.41941 -7.71982
ltibia 83.9977
lfoot -9.927 -2.90259
ltoes -6.3283
48
root 5.43704 16.3498 -2.15644 1.67001 -4.29257 1.99163
lowerback 24.6034 -0.478161 7.40255
upperback 4.14138 1.79019 4.97586
thorax -9.05553 0.689108 0.724059
lowerneck -20.2177 -1.88059 -4.02599
upperneck 18.8072 -0.213592 -5.0021
head 9.29446 -0.973107 -1.10074
rclavicle -3.18055e-015 3.18055e-014
rhumerus -34.4698 1.6394 -75.2584
rradius 71.2122
rwrist 5.57765
rhand -35.3874 5.28575
rfingers 7.12502
rthumb -8.51869 -24.5224
lclavicle -3.18055e-015 3.18055e-014
lhumerus -38.0659 -12.4436 91.5893
lradius 89.8772
lwrist 3.32899
lhand -21.8938 -9.55603
lfingers 7.12502
lthumb 4.51133 20.3759
rfemur -39.3613 1.08952 22.8214
rtibia 74.6057
rfoot -18.3011 -8.48715
rtoes -14.384
lfemur -49.2028 4.13026 -7.48887
ltibia 79.9181
lfoot -9.29149 -3.5075
ltoes -8.12469
49
root 5.47227 16.3555 -1.67498 1.7787 -4.09807 3.21932
lowerback 25.0629 -0.427468 6.68582
upperback 4.52491 1.6545 4.66871
thorax -8.8792 0.650994 0.825637
lowerneck -20.4388 -2.11727 -4.15979
upperneck 18.494 -0.534961 -4.85127
head 9.22243 -1.10892 -1.06952
rclavicle -2.38542e-014 -3.33958e-014
rhumerus -32.3096 1.77749 -75.0609
rradius 71.0282
rwrist 6.68618
rhand -36.5591 4.89834
rfingers 7.12502
rthumb -9.64932 -24.8607
lclavicle -2.38542e-014 -3.33958e-014
lhumerus -36.7001 -12.7083 91.335
lradius 89.5397
lwrist 3.74234
lhand -21.8436 -9.245
lfingers 7.12502
lthumb 4.55976 20.6859
rfemur -40.2139 -0.148425 21.3452
rtibia 78.2686
rfoot -16.1094 -7.92342
rtoes -15.3819
lfemur -50.2166 1.13156 -6.95244
ltibia 75.0252
lfoot -7.79353 -4.0878
ltoes -9.73577
50
root 5.51346 16.3487 -1.19851 1.67691 -4.00262 4.22393
lowerback 25.77 -0.419257 6.21937
upperback 5.01543 1.54636 4.41931
thorax -8.70026 0.618255 0.842752
lowerneck -20.6446 -2.32887 -4.28216
upperneck 18.1346 -0.825088 -4.70867
head 9.13265 -1.22899 -1.03809
rclavicle 1.35174e-014 2.22639e-014
rhumerus -30.0487 2.03523 -74.7427
rradius 70.6818
rwrist 7.68606
rhand -38.0227 5.17545
rfingers 7.12502
rthumb -11.0611 -24.5131
lclavicle 1.35174e-014 2.22639e-014
lhumerus -35.2229 -13.1718 91.1587
lradius 89.341
lwrist 3.96781
lhand -21.7545 -8.99506
lfingers 7.12502
lthumb 4.6458 20.934
rfemur -41.2574 -1.5822 20.1525
rtibia 82.0094
rfoot -12.6061 -7.44202
rtoes -14.4353
lfemur -50.3959 -2.01779 -5.82592
ltibia 69.6576
lfoot -5.63496 -4.64184
ltoes -11.9444
51
root 5.56056 16.3297 -0.717066 1.23423 -4.33579 5.13304
lowerback 26.8791 -0.400483 5.64939
upperback 5.5422 1.45909 4.26354
thorax -8.68447 0.592727 1.01999
lowerneck -20.4971 -2.3955 -4.53126
upperneck 17.687 -0.899163 -4.59213
head 8.95365 -1.25387 -0.959202
rclavicle -9.54166e-015 3.18055e-015
rhumerus -27.7217 2.9305 -74.2527
rradius 70.2205
rwrist 8.09325
rhand -39.1829 5.39839
rfingers 7.12502
rthumb -12.18 -24.227
lclavicle -9.54166e-015 3.18055e-015
lhumerus -33.9616 -13.3521 91.127
lradius 89.2713
lwrist 3.88767
lhand -21.6243 -8.98463
lfingers 7.12502
lthumb 4.77152 20.9416
rfemur -42.2444 -2.96687 19.1464
rtibia 85.7141
rfoot -9.04984 -7.0879
rtoes -10.6464
lfemur -49.5905 -4.91469 -4.3611
ltibia 63.9864
lfoot -2.95149 -4.90618
ltoes -13.3646
52
root 5.6019 16.2675 -0.262881 1.04306 -4.29258 6.08189
lowerback 27.9958 -0.436424 4.96739
upperback 5.9549 1.27302 4.13641
thorax -8.79542 0.519907 1.3319
lowerneck -20.5767 -2.45819 -4.67246
upperneck 17.3665 -0.977038 -4.47987
head 8.85812 -1.2794 -0.905241
rclavicle 2.70347e-014 -5.08889e-014
rhumerus -25.2885 3.75119 -73.556
rradius 69.6902
rwrist 8.09925
rhand -39.8728 5.81732
rfingers 7.12502
rthumb -12.8452 -23.7674
lclavicle 2.70347e-014 -5.08889e-014
lhumerus -32.555 -13.8534 91.1475
lradius 89.2091
lwrist 3.46114
lhand -21.6662 -8.95452
lfingers 7.12502
lthumb 4.73105 20.9727
rfemur -43.8316 -5.13603 18.3532
rtibia 89.4948
rfoot -6.28143 -7.25072
rtoes -4.8091
lfemur -49.1521 -7.88753 -2.74549
ltibia 58.4237
lfoot -0.050824 -4.80487
ltoes -13.1762
53
root 5.65243 16.2144 0.211055 0.643601 -5.01636 7.21914
lowerback 29.3025 -0.165619 4.07829
upperback 6.35485 1.39522 3.85544
thorax -9.00239 0.590656 1.48596
lowerneck -20.6211 -2.52142 -4.59334
upperneck 17.1914 -1.10034 -4.44873
head 8.80389 -1.32392 -0.922147
rclavicle -2.22639e-014 -6.36111e-015
rhumerus -22.9838 4.26959 -72.8811
rradius 69.0548
rwrist 8.34663
rhand -40.4512 5.94704
rfingers 7.12502
rthumb -13.4027 -23.6018
lclavicle -2.22639e-014 -6.36111e-015
lhumerus -31.2582 -14.7213 91.2123
lradius 89.1061
lwrist 2.69981
lhand -21.8146 -8.75047
lfingers 7.12502
lthumb 4.58777 21.1798
rfemur -45.2789 -6.98894 17.5069
rtibia 93.0477
rfoot -5.90923 -7.60187
rtoes -1.77359
lfemur -47.9424 -10.3479 -1.40457
ltibia 53.1681
lfoot 2.11011 -3.34604
ltoes -12.3338
54
root 5.70439 16.1523 0.692856 0.207486 -6.16995 8.49548
lowerback 30.5131 0.277802 2.85902
upperback 6.78058 1.59986 3.57758
thorax -9.13307 0.705431 1.80062
lowerneck -20.632 -2.51345 -4.54413
upperneck 16.9588 -1.11546 -4.4484
head 8.72485 -1.32157 -0.928877
rclavicle -3.18055e-015 1.11319e-014
rhumerus -20.6058 4.75464 -72.0916
rradius 68.363
rwrist 9.03873
rhand -40.694 6.11827
rfingers 7.12502
rthumb -13.6367 -23.415
lclavicle -3.18055e-015 1.11319e-014
lhumerus -29.8795 -15.5657 91.3327
lradius 88.9
lwrist 1.77521
lhand -20.1221 -8.41403
lfingers 7.12502
lthumb 6.2219 21.4746
rfemur -47.0741 -8.79494 16.8146
rtibia 96.2238
rfoot -7.26744 -8.17763
rtoes 1.89485
lfemur -46.3869 -12.4997 -0.274327
ltibia 48.5421
lfoot 4.0324 -0.67678
ltoes -11.3861
55
root 5.76573 16.0667 1.17935 -0.136312 -7.60863 9.80165
lowerback 31.5469 0.818384 1.55777
upperback 7.13359 1.86292 3.28503
thorax -9.25936 0.846093 2.12139
lowerneck -20.6141 -2.46211 -4.49696
upperneck 16.7875 -1.06522 -4.46893
head 8.66236 -1.29246 -0.934094
rclavicle -1.90833e-014 -3.18055e-014
rhumerus -18.2162 5.10971 -71.2757
rradius 67.4349
rwrist 10.3354
rhand -41.2004 6.62213
rfingers 7.12502
rthumb -14.1248 -22.8778
lclavicle -1.90833e-014 -3.18055e-014
lhumerus -28.5225 -16.5628 91.5074
lradius 88.6531
lwrist 0.450524
lhand -20.4927 -8.3034
lfingers 7.12502
lthumb 5.86412 21.5955
rfemur -49.3443 -10.3713 16.4157
rtibia 98.9626
rfoot -7.82986 -8.81335
rtoes 3.13499
lfemur -44.8745 -14.1546 0.578502
ltibia 44.8585
lfoot 5.97711 1.61903
ltoes -12.5837
56
root 5.83556 15.9738 1.67203 -0.460377 -9.27119 11.0113
lowerback 32.6176 1.34839 0.469829
upperback 7.08838 2.14204 3.02182
thorax -9.06022 0.964228 2.16181
lowerneck -20.6842 -2.37555 -4.35899
upperneck 16.6196 -0.973744 -4.55785
head 8.61558 -1.24669 -0.973137
rclavicle -1.59028e-014 -1.59028e-015
rhumerus -15.6961 5.29743 -70.5262
rradius 66.4016
rwrist 11.9285
rhand -41.669 6.31982
rfingers 7.12502
rthumb -14.5763 -23.148
lclavicle -1.59028e-014 -1.59028e-015
lhumerus -27.0339 -17.6365 91.5909
lradius 88.3316
lwrist -0.707021
lhand -20.8833 -8.53611
lfingers 7.12502
lthumb 5.48704 21.3728
rfemur -51.8852 -11.8538 16.5475
rtibia 101.193
rfoot -8.31625 -9.80011
rtoes 5.21954
lfemur -43.6763 -15.5296 1.41461
ltibia 42.3629
lfoot 7.86178 2.96529
ltoes -12.0909
57
root 5.91652 15.8542 2.17531 -0.75221 -11.1624 12.1523
lowerback 33.2222 1.87764 -0.539675
upperback 7.42516 2.41053 2.64855
thorax -8.95309 1.09597 2.20207
lowerneck -20.752 -2.22099 -4.15998
upperneck 16.4877 -0.790796 -4.72218
head 8.58113 -1.16332 -1.03597
rclavicle -7.95139e-015 1.59028e-014
rhumerus -12.9792 5.42127 -69.8807
rradius 65.0656
rwrist 13.3257
rhand -42.1027 6.08779
rfingers 7.12502
rthumb -14.9941 -23.3494
lclavicle -7.95139e-015 1.59028e-014
lhumerus -25.5308 -18.7155 91.6044
lradius 87.9556
lwrist -1.64805
lhand -21.2792 -8.94435
lfingers 7.12502
lthumb 5.10476 20.9742
rfemur -54.7946 -13.1347 17.212
rtibia 102.94
rfoot -9.32873 -10.3247
rtoes 6.78178
lfemur -42.5347 -16.1022 1.74499
ltibia 41.164
lfoot 8.87491 2.66389
ltoes -13.3512
58
root 6.01429 15.7 2.69448 -0.91561 -13.1693 13.0627
lowerback 33.5417 2.27958 -1.25792
upperback 7.66847 2.60874 2.27801
thorax -8.82189 1.18983 2.11726
lowerneck -20.5101 -1.98552 -3.91027
upperneck 16.2778 -0.516856 -4.98641
head 8.46787 -1.03883 -1.12357
rclavicle 3.18055e-015 2.38542e-014
rhumerus -10.2473 5.64918 -69.3869
rradius 63.5185
rwrist 14.5006
rhand -42.3966 5.76835
rfingers 7.12502
rthumb -15.2772 -23.6474
lclavicle 3.18055e-015 2.38542e-014
lhumerus -24.1988 -19.6413 91.6475
lradius 87.5992
lwrist -2.4605
lhand -21.9465 -9.17947
lfingers 7.12502
lthumb 4.46041 20.7536
rfemur -58.0809 -14.1513 18.5657
rtibia 104.158
rfoot -10.519 -10.5137
rtoes 7.62087
lfemur -41.5857 -15.8903 1.74059
ltibia 41.2526
lfoot 9.27075 1.76205
ltoes -13.866
